<mxfile host="app.diagrams.net" modified="2020-11-26T10:25:18.869Z" agent="5.0 (Windows)" etag="QuMr820A2D7TXTrx3DJ-" version="13.10.3" type="github">
  <diagram id="ECBcf4AF0JtO1z4K7DSX" name="Page-1">
    <mxGraphModel dx="8209" dy="3795" grid="1" gridSize="14" guides="1" tooltips="1" connect="1" arrows="1" fold="1" page="1" pageScale="1" pageWidth="1169" pageHeight="827" background="none" math="1" shadow="0">
      <root>
        <mxCell id="0" />
        <mxCell id="1" parent="0" />
        <mxCell id="vq10Wp0aYiQOO_JATJNM-236" value="" style="line;strokeWidth=1;direction=south;html=1;dashed=1;dashPattern=20 20;rounded=0;shadow=0;glass=0;labelBackgroundColor=none;sketch=1;startSize=26;fillColor=#ffffff;fontFamily=Lucida Console;fontSize=11;align=center;" parent="1" vertex="1">
          <mxGeometry x="1050" y="1918" width="10" height="392" as="geometry" />
        </mxCell>
        <mxCell id="-ayLkiG4syY7ho0zuzDr-17" value="&amp;lt;&amp;lt;ext&amp;gt;&amp;gt;&lt;br&gt;&lt;div&gt;Quartz.NET&lt;/div&gt;" style="shape=folder;fontStyle=1;tabWidth=108;tabHeight=50;tabPosition=left;html=1;boundedLbl=1;labelInHeader=1;rounded=0;shadow=0;glass=0;sketch=1;startSize=50;strokeColor=#82b366;fillColor=#ffffff;fontFamily=Lucida Console;fontSize=14;swimlaneFillColor=#ffffff;" parent="1" vertex="1">
          <mxGeometry x="-10" y="650" width="260" height="440" as="geometry" />
        </mxCell>
        <mxCell id="-ayLkiG4syY7ho0zuzDr-19" value="Scheduler" style="swimlane;fontStyle=1;align=center;verticalAlign=middle;childLayout=stackLayout;horizontal=1;startSize=29;horizontalStack=0;resizeParent=1;resizeParentMax=0;resizeLast=0;collapsible=0;marginBottom=0;html=1;rounded=0;shadow=0;glass=0;sketch=1;strokeColor=#82b366;fillColor=none;fontFamily=Lucida Console;fontSize=14;" parent="1" vertex="1">
          <mxGeometry x="10" y="710" width="220" height="121" as="geometry" />
        </mxCell>
        <mxCell id="ia7Ri7Av3f0508WHwBtR-4" value="+ RegisterJob(schedule, job)" style="text;html=1;strokeColor=none;fillColor=none;align=left;verticalAlign=middle;spacingLeft=4;spacingRight=4;overflow=hidden;rotatable=0;points=[[0,0.5],[1,0.5]];portConstraint=eastwest;fontFamily=Courier New;fontSize=14;" parent="-ayLkiG4syY7ho0zuzDr-19" vertex="1">
          <mxGeometry y="29" width="220" height="31" as="geometry" />
        </mxCell>
        <mxCell id="vq10Wp0aYiQOO_JATJNM-24" value="+ TriggerJob(job)" style="text;html=1;strokeColor=none;fillColor=none;align=left;verticalAlign=middle;spacingLeft=4;spacingRight=4;overflow=hidden;rotatable=0;points=[[0,0.5],[1,0.5]];portConstraint=eastwest;fontFamily=Courier New;fontSize=14;" parent="-ayLkiG4syY7ho0zuzDr-19" vertex="1">
          <mxGeometry y="60" width="220" height="30" as="geometry" />
        </mxCell>
        <mxCell id="-ayLkiG4syY7ho0zuzDr-21" value="+ ...." style="text;html=1;strokeColor=none;fillColor=none;align=left;verticalAlign=middle;spacingLeft=4;spacingRight=4;overflow=hidden;rotatable=0;points=[[0,0.5],[1,0.5]];portConstraint=eastwest;fontFamily=Courier New;fontSize=14;" parent="-ayLkiG4syY7ho0zuzDr-19" vertex="1">
          <mxGeometry y="90" width="220" height="31" as="geometry" />
        </mxCell>
        <mxCell id="-ayLkiG4syY7ho0zuzDr-31" value="JobRunner" style="swimlane;fontStyle=1;align=center;verticalAlign=middle;childLayout=stackLayout;horizontal=1;startSize=29;horizontalStack=0;resizeParent=1;resizeParentMax=0;resizeLast=0;collapsible=0;marginBottom=0;html=1;rounded=0;shadow=0;glass=0;sketch=1;strokeColor=#82b366;fillColor=none;fontFamily=Lucida Console;fontSize=14;" parent="1" vertex="1">
          <mxGeometry x="10" y="900" width="140" height="90" as="geometry" />
        </mxCell>
        <mxCell id="-ayLkiG4syY7ho0zuzDr-32" value="+ RunJob(Job job)" style="text;html=1;strokeColor=none;fillColor=none;align=left;verticalAlign=middle;spacingLeft=4;spacingRight=4;overflow=hidden;rotatable=0;points=[[0,0.5],[1,0.5]];portConstraint=eastwest;fontFamily=Courier New;fontSize=14;" parent="-ayLkiG4syY7ho0zuzDr-31" vertex="1">
          <mxGeometry y="29" width="140" height="31" as="geometry" />
        </mxCell>
        <mxCell id="vq10Wp0aYiQOO_JATJNM-25" value="+ ..." style="text;html=1;strokeColor=none;fillColor=none;align=left;verticalAlign=middle;spacingLeft=4;spacingRight=4;overflow=hidden;rotatable=0;points=[[0,0.5],[1,0.5]];portConstraint=eastwest;fontFamily=Courier New;fontSize=14;" parent="-ayLkiG4syY7ho0zuzDr-31" vertex="1">
          <mxGeometry y="60" width="140" height="30" as="geometry" />
        </mxCell>
        <mxCell id="vq10Wp0aYiQOO_JATJNM-88" value="Analysis.Updates.Synchronization" style="shape=folder;fontStyle=1;tabWidth=355;tabHeight=40;tabPosition=left;html=1;boundedLbl=1;labelInHeader=1;rounded=0;shadow=0;glass=0;sketch=1;startSize=50;strokeColor=#82b366;fontFamily=Lucida Console;fillColor=#ffffff;fontSize=14;recursiveResize=0;swimlaneFillColor=#ffffff;" parent="1" vertex="1">
          <mxGeometry x="308" y="196" width="1904" height="1088" as="geometry" />
        </mxCell>
        <mxCell id="ia7Ri7Av3f0508WHwBtR-71" style="edgeStyle=orthogonalEdgeStyle;curved=0;rounded=0;orthogonalLoop=1;jettySize=auto;html=1;strokeColor=#182E3E;fillColor=#dae8fc;fontFamily=Courier New;fontColor=#000000;dashed=1;fontSize=14;endFill=0;endArrow=open;endSize=12;startSize=29;jumpStyle=gap;" parent="vq10Wp0aYiQOO_JATJNM-88" source="vq10Wp0aYiQOO_JATJNM-74" target="ia7Ri7Av3f0508WHwBtR-50" edge="1">
          <mxGeometry relative="1" as="geometry">
            <mxPoint x="1490" y="610" as="targetPoint" />
          </mxGeometry>
        </mxCell>
        <mxCell id="ia7Ri7Av3f0508WHwBtR-70" style="edgeStyle=orthogonalEdgeStyle;curved=0;rounded=0;orthogonalLoop=1;jettySize=auto;html=1;entryX=0;entryY=0.5;entryDx=0;entryDy=0;strokeColor=#182E3E;fillColor=#dae8fc;fontFamily=Courier New;fontColor=#000000;dashed=1;fontSize=14;endFill=0;endArrow=open;endSize=12;startSize=29;" parent="vq10Wp0aYiQOO_JATJNM-88" source="vq10Wp0aYiQOO_JATJNM-74" target="ia7Ri7Av3f0508WHwBtR-44" edge="1">
          <mxGeometry relative="1" as="geometry">
            <Array as="points">
              <mxPoint x="1456" y="361" />
            </Array>
          </mxGeometry>
        </mxCell>
        <mxCell id="ia7Ri7Av3f0508WHwBtR-58" style="edgeStyle=orthogonalEdgeStyle;rounded=0;orthogonalLoop=1;jettySize=auto;html=1;entryX=0;entryY=0.5;entryDx=0;entryDy=0;startSize=29;endArrow=open;endFill=0;endSize=12;strokeColor=#182E3E;fillColor=#dae8fc;fontFamily=Courier New;fontSize=14;dashed=1;" parent="vq10Wp0aYiQOO_JATJNM-88" source="vq10Wp0aYiQOO_JATJNM-78" target="ia7Ri7Av3f0508WHwBtR-51" edge="1">
          <mxGeometry relative="1" as="geometry" />
        </mxCell>
        <mxCell id="ia7Ri7Av3f0508WHwBtR-57" style="edgeStyle=orthogonalEdgeStyle;rounded=0;orthogonalLoop=1;jettySize=auto;html=1;startSize=29;endArrow=open;endFill=0;endSize=12;strokeColor=#182E3E;fillColor=#dae8fc;fontFamily=Courier New;fontSize=14;entryX=0;entryY=0.5;entryDx=0;entryDy=0;dashed=1;jumpStyle=arc;" parent="vq10Wp0aYiQOO_JATJNM-88" source="vq10Wp0aYiQOO_JATJNM-78" target="ia7Ri7Av3f0508WHwBtR-47" edge="1">
          <mxGeometry relative="1" as="geometry" />
        </mxCell>
        <mxCell id="vq10Wp0aYiQOO_JATJNM-78" value="SyncrhonizationService" style="swimlane;fontStyle=1;childLayout=stackLayout;horizontal=1;startSize=50;fillColor=#ffffff;horizontalStack=0;resizeParent=1;resizeParentMax=0;resizeLast=0;collapsible=1;marginBottom=0;rounded=0;shadow=0;glass=0;sketch=1;strokeColor=#82b366;fontFamily=Lucida Console;html=1;fontSize=14;swimlaneFillColor=#ffffff;" parent="vq10Wp0aYiQOO_JATJNM-88" vertex="1">
          <mxGeometry x="625.4999999999999" y="714" width="653" height="317.94936708860763" as="geometry">
            <mxRectangle x="470" y="290" width="190" height="40" as="alternateBounds" />
          </mxGeometry>
        </mxCell>
        <mxCell id="vq10Wp0aYiQOO_JATJNM-81" value="+ Start(command: ImportUpdatesJobCommand)" style="text;html=1;strokeColor=none;fillColor=none;align=left;verticalAlign=middle;spacingLeft=4;spacingRight=4;overflow=hidden;rotatable=0;points=[[0,0.5],[1,0.5]];portConstraint=eastwest;fontFamily=Courier New;fontSize=14;" parent="vq10Wp0aYiQOO_JATJNM-78" vertex="1">
          <mxGeometry y="50" width="653" height="38.278481012658226" as="geometry" />
        </mxCell>
        <mxCell id="vq10Wp0aYiQOO_JATJNM-82" value="+ Start(command: ImportChangesJobCommand)" style="text;html=1;strokeColor=none;fillColor=none;align=left;verticalAlign=middle;spacingLeft=4;spacingRight=4;overflow=hidden;rotatable=0;points=[[0,0.5],[1,0.5]];portConstraint=eastwest;fontFamily=Courier New;fontSize=14;" parent="vq10Wp0aYiQOO_JATJNM-78" vertex="1">
          <mxGeometry y="88.27848101265823" width="653" height="38.278481012658226" as="geometry" />
        </mxCell>
        <mxCell id="vq10Wp0aYiQOO_JATJNM-83" value="+ Cancel(command: CancelJobCommand) " style="text;html=1;strokeColor=none;fillColor=none;align=left;verticalAlign=middle;spacingLeft=4;spacingRight=4;overflow=hidden;rotatable=0;points=[[0,0.5],[1,0.5]];portConstraint=eastwest;fontFamily=Courier New;fontSize=14;" parent="vq10Wp0aYiQOO_JATJNM-78" vertex="1">
          <mxGeometry y="126.55696202531647" width="653" height="38.278481012658226" as="geometry" />
        </mxCell>
        <mxCell id="vq10Wp0aYiQOO_JATJNM-84" value="+ Pause(command: PauseJobCommand) " style="text;html=1;strokeColor=none;fillColor=none;align=left;verticalAlign=middle;spacingLeft=4;spacingRight=4;overflow=hidden;rotatable=0;points=[[0,0.5],[1,0.5]];portConstraint=eastwest;fontFamily=Courier New;fontSize=14;" parent="vq10Wp0aYiQOO_JATJNM-78" vertex="1">
          <mxGeometry y="164.8354430379747" width="653" height="38.278481012658226" as="geometry" />
        </mxCell>
        <mxCell id="vq10Wp0aYiQOO_JATJNM-85" value="+ Resume(command: PauseJobCommand) " style="text;html=1;fillColor=none;align=left;verticalAlign=middle;spacingLeft=4;spacingRight=4;overflow=hidden;rotatable=0;points=[[0,0.5],[1,0.5]];portConstraint=eastwest;fontFamily=Courier New;fontSize=14;" parent="vq10Wp0aYiQOO_JATJNM-78" vertex="1">
          <mxGeometry y="203.11392405063293" width="653" height="38.278481012658226" as="geometry" />
        </mxCell>
        <mxCell id="vq10Wp0aYiQOO_JATJNM-87" value="+ Job_StatusChanged(job: ISynchronizationJob, status: StatusChange)" style="text;html=1;fillColor=none;align=left;verticalAlign=middle;spacingLeft=4;spacingRight=4;overflow=hidden;rotatable=0;points=[[0,0.5],[1,0.5]];portConstraint=eastwest;fontFamily=Courier New;fontSize=14;" parent="vq10Wp0aYiQOO_JATJNM-78" vertex="1">
          <mxGeometry y="241.39240506329116" width="653" height="38.278481012658226" as="geometry" />
        </mxCell>
        <mxCell id="vq10Wp0aYiQOO_JATJNM-86" value="+ Job_ProgressReported(job: ISynchronizationJob, progress: int) " style="text;html=1;fillColor=none;align=left;verticalAlign=middle;spacingLeft=4;spacingRight=4;overflow=hidden;rotatable=0;points=[[0,0.5],[1,0.5]];portConstraint=eastwest;fontFamily=Courier New;fontSize=14;" parent="vq10Wp0aYiQOO_JATJNM-78" vertex="1">
          <mxGeometry y="279.6708860759494" width="653" height="38.278481012658226" as="geometry" />
        </mxCell>
        <mxCell id="vq10Wp0aYiQOO_JATJNM-74" value="JobFactory" style="swimlane;fontStyle=1;childLayout=stackLayout;horizontal=1;startSize=50;horizontalStack=0;resizeParent=1;resizeParentMax=0;resizeLast=0;collapsible=1;marginBottom=0;rounded=0;shadow=0;glass=0;sketch=1;strokeColor=#82b366;fontFamily=Lucida Console;html=1;fontSize=14;swimlaneFillColor=#ffffff;" parent="vq10Wp0aYiQOO_JATJNM-88" vertex="1">
          <mxGeometry x="1341" y="728" width="529" height="126.55696202531647" as="geometry">
            <mxRectangle x="1020" y="290" width="100" height="50" as="alternateBounds" />
          </mxGeometry>
        </mxCell>
        <mxCell id="vq10Wp0aYiQOO_JATJNM-75" value="+ CreateImportUpdatesJob(command: ImportUpdatesJobCommand)" style="text;strokeColor=none;align=left;verticalAlign=top;spacingLeft=4;spacingRight=4;overflow=hidden;rotatable=0;points=[[0,0.5],[1,0.5]];portConstraint=eastwest;fontFamily=Courier New;fontSize=14;" parent="vq10Wp0aYiQOO_JATJNM-74" vertex="1">
          <mxGeometry y="50" width="529" height="38.27848101265823" as="geometry" />
        </mxCell>
        <mxCell id="vq10Wp0aYiQOO_JATJNM-76" value="+ CreateImportChangesJob(command: ImportChangesJobCommand)" style="text;strokeColor=none;fillColor=none;align=left;verticalAlign=top;spacingLeft=4;spacingRight=4;overflow=hidden;rotatable=0;points=[[0,0.5],[1,0.5]];portConstraint=eastwest;fontFamily=Courier New;fontSize=14;" parent="vq10Wp0aYiQOO_JATJNM-74" vertex="1">
          <mxGeometry y="88.27848101265823" width="529" height="38.27848101265823" as="geometry" />
        </mxCell>
        <mxCell id="c3qGKdSlmFXIAMFMvV2--12" style="edgeStyle=orthogonalEdgeStyle;rounded=0;jumpStyle=gap;orthogonalLoop=1;jettySize=auto;html=1;exitX=0.5;exitY=0;exitDx=0;exitDy=0;entryX=0.499;entryY=1.002;entryDx=0;entryDy=0;entryPerimeter=0;strokeColor=#182E3E;fillColor=#dae8fc;fontFamily=Courier New;dashed=1;fontSize=14;endFill=0;endArrow=open;endSize=12;startSize=29;" parent="vq10Wp0aYiQOO_JATJNM-88" source="vq10Wp0aYiQOO_JATJNM-92" target="vq10Wp0aYiQOO_JATJNM-147" edge="1">
          <mxGeometry relative="1" as="geometry" />
        </mxCell>
        <mxCell id="vq10Wp0aYiQOO_JATJNM-92" value="&lt;b style=&quot;font-size: 14px;&quot;&gt;JobRunner&lt;/b&gt;" style="swimlane;fontStyle=0;childLayout=stackLayout;horizontal=1;startSize=26;fillColor=none;horizontalStack=0;resizeParent=1;resizeParentMax=0;resizeLast=0;collapsible=1;marginBottom=0;rounded=0;shadow=0;glass=0;sketch=1;strokeColor=#82b366;fontFamily=Lucida Console;html=1;fontSize=14;" parent="vq10Wp0aYiQOO_JATJNM-88" vertex="1">
          <mxGeometry x="23.28000000000003" y="428.28" width="293.43" height="59.174683544303804" as="geometry" />
        </mxCell>
        <mxCell id="vq10Wp0aYiQOO_JATJNM-93" value="+ Start(job: SynchronizationJob)" style="text;strokeColor=none;fillColor=none;align=left;verticalAlign=top;spacingLeft=4;spacingRight=4;overflow=hidden;rotatable=0;points=[[0,0.5],[1,0.5]];portConstraint=eastwest;fontFamily=Courier New;fontSize=14;" parent="vq10Wp0aYiQOO_JATJNM-92" vertex="1">
          <mxGeometry y="26" width="293.43" height="33.174683544303804" as="geometry" />
        </mxCell>
        <mxCell id="vq10Wp0aYiQOO_JATJNM-112" value="&lt;b style=&quot;font-size: 14px;&quot;&gt;ImportJob&lt;/b&gt;" style="swimlane;fontStyle=0;childLayout=stackLayout;horizontal=1;startSize=26;fillColor=none;horizontalStack=0;resizeParent=1;resizeParentMax=0;resizeLast=0;collapsible=1;marginBottom=0;rounded=0;shadow=0;glass=0;sketch=1;strokeColor=#82b366;fontFamily=Lucida Console;html=1;fontSize=14;" parent="vq10Wp0aYiQOO_JATJNM-88" vertex="1">
          <mxGeometry x="364" y="56.86" width="574" height="158.69873417721521" as="geometry" />
        </mxCell>
        <mxCell id="c3qGKdSlmFXIAMFMvV2--9" value="+ /GetTotalCount()" style="text;strokeColor=none;fillColor=none;align=left;verticalAlign=top;spacingLeft=4;spacingRight=4;overflow=hidden;rotatable=0;points=[[0,0.5],[1,0.5]];portConstraint=eastwest;fontFamily=Courier New;fontSize=14;" parent="vq10Wp0aYiQOO_JATJNM-112" vertex="1">
          <mxGeometry y="26" width="574" height="33.174683544303804" as="geometry" />
        </mxCell>
        <mxCell id="c3qGKdSlmFXIAMFMvV2--8" value="+ /ImportNext()" style="text;strokeColor=none;fillColor=none;align=left;verticalAlign=top;spacingLeft=4;spacingRight=4;overflow=hidden;rotatable=0;points=[[0,0.5],[1,0.5]];portConstraint=eastwest;fontFamily=Courier New;fontSize=14;" parent="vq10Wp0aYiQOO_JATJNM-112" vertex="1">
          <mxGeometry y="59.174683544303804" width="574" height="33.174683544303804" as="geometry" />
        </mxCell>
        <mxCell id="pbwpxvugvnZyUmwZ_y10-5" value="+ -MapToDomainEvents(sourceItem: Update): IMessage[]" style="text;strokeColor=none;fillColor=none;align=left;verticalAlign=top;spacingLeft=4;spacingRight=4;overflow=hidden;rotatable=0;points=[[0,0.5],[1,0.5]];portConstraint=eastwest;fontFamily=Courier New;fontSize=14;" vertex="1" parent="vq10Wp0aYiQOO_JATJNM-112">
          <mxGeometry y="92.34936708860761" width="574" height="33.174683544303804" as="geometry" />
        </mxCell>
        <mxCell id="pbwpxvugvnZyUmwZ_y10-6" value="+ -ImportDomainEvent(events: IMessage[], sourceItem: Update)" style="text;strokeColor=none;fillColor=none;align=left;verticalAlign=top;spacingLeft=4;spacingRight=4;overflow=hidden;rotatable=0;points=[[0,0.5],[1,0.5]];portConstraint=eastwest;fontFamily=Courier New;fontSize=14;" vertex="1" parent="vq10Wp0aYiQOO_JATJNM-112">
          <mxGeometry y="125.52405063291141" width="574" height="33.174683544303804" as="geometry" />
        </mxCell>
        <mxCell id="c3qGKdSlmFXIAMFMvV2--10" style="edgeStyle=orthogonalEdgeStyle;rounded=0;jumpStyle=gap;orthogonalLoop=1;jettySize=auto;html=1;exitX=0;exitY=0.5;exitDx=0;exitDy=0;strokeColor=#182E3E;fillColor=#dae8fc;fontFamily=Lucida Console;fontSize=14;fontColor=#1A1A1A;endFill=0;endArrow=block;endSize=12;entryX=1;entryY=0.5;entryDx=0;entryDy=0;" parent="vq10Wp0aYiQOO_JATJNM-88" source="ia7Ri7Av3f0508WHwBtR-33" edge="1" target="vq10Wp0aYiQOO_JATJNM-144">
          <mxGeometry relative="1" as="geometry">
            <mxPoint x="252" y="229" as="targetPoint" />
          </mxGeometry>
        </mxCell>
        <mxCell id="vq10Wp0aYiQOO_JATJNM-116" value="SyncChangesJob" style="swimlane;fontStyle=1;childLayout=stackLayout;horizontal=1;startSize=26;fillColor=none;horizontalStack=0;resizeParent=1;resizeParentMax=0;resizeLast=0;collapsible=1;marginBottom=0;rounded=0;shadow=0;glass=0;sketch=1;strokeColor=#82b366;fontFamily=Lucida Console;html=1;fontSize=14;" parent="vq10Wp0aYiQOO_JATJNM-88" vertex="1">
          <mxGeometry x="378" y="252" width="560" height="158.69873417721521" as="geometry" />
        </mxCell>
        <mxCell id="ia7Ri7Av3f0508WHwBtR-33" value="+ /ImportNext()" style="text;strokeColor=none;fillColor=none;align=left;verticalAlign=top;spacingLeft=4;spacingRight=4;overflow=hidden;rotatable=0;points=[[0,0.5],[1,0.5]];portConstraint=eastwest;fontFamily=Courier New;fontSize=14;" parent="vq10Wp0aYiQOO_JATJNM-116" vertex="1">
          <mxGeometry y="26" width="560" height="33.174683544303804" as="geometry" />
        </mxCell>
        <mxCell id="c3qGKdSlmFXIAMFMvV2--7" value="+ /GetTotalCount()" style="text;strokeColor=none;fillColor=none;align=left;verticalAlign=top;spacingLeft=4;spacingRight=4;overflow=hidden;rotatable=0;points=[[0,0.5],[1,0.5]];portConstraint=eastwest;fontFamily=Courier New;fontSize=14;" parent="vq10Wp0aYiQOO_JATJNM-116" vertex="1">
          <mxGeometry y="59.174683544303804" width="560" height="33.174683544303804" as="geometry" />
        </mxCell>
        <mxCell id="pbwpxvugvnZyUmwZ_y10-2" value="+ -MapToDomainEvents(sourceItem: UpdateChange): IMessage[]" style="text;strokeColor=none;fillColor=none;align=left;verticalAlign=top;spacingLeft=4;spacingRight=4;overflow=hidden;rotatable=0;points=[[0,0.5],[1,0.5]];portConstraint=eastwest;fontFamily=Courier New;fontSize=14;" vertex="1" parent="vq10Wp0aYiQOO_JATJNM-116">
          <mxGeometry y="92.34936708860761" width="560" height="33.174683544303804" as="geometry" />
        </mxCell>
        <mxCell id="pbwpxvugvnZyUmwZ_y10-3" value="+ -ImportDomainEvent(events: IMessage[], sourceItem: UpdateChange)" style="text;strokeColor=none;fillColor=none;align=left;verticalAlign=top;spacingLeft=4;spacingRight=4;overflow=hidden;rotatable=0;points=[[0,0.5],[1,0.5]];portConstraint=eastwest;fontFamily=Courier New;fontSize=14;" vertex="1" parent="vq10Wp0aYiQOO_JATJNM-116">
          <mxGeometry y="125.52405063291141" width="560" height="33.174683544303804" as="geometry" />
        </mxCell>
        <mxCell id="vq10Wp0aYiQOO_JATJNM-149" style="edgeStyle=orthogonalEdgeStyle;rounded=0;orthogonalLoop=1;jettySize=auto;html=1;entryX=1;entryY=0.5;entryDx=0;entryDy=0;strokeColor=#182E3E;fillColor=#dae8fc;fontFamily=Lucida Console;fontSize=14;fontColor=#1A1A1A;endFill=0;endArrow=block;endSize=12;" parent="vq10Wp0aYiQOO_JATJNM-88" target="vq10Wp0aYiQOO_JATJNM-146" edge="1" source="vq10Wp0aYiQOO_JATJNM-112">
          <mxGeometry relative="1" as="geometry">
            <mxPoint x="203" y="125" as="sourcePoint" />
          </mxGeometry>
        </mxCell>
        <mxCell id="vq10Wp0aYiQOO_JATJNM-233" value="UpdateImportTarget" style="swimlane;fontStyle=1;childLayout=stackLayout;horizontal=1;startSize=50;fillColor=none;horizontalStack=0;resizeParent=1;resizeParentMax=0;resizeLast=0;collapsible=1;marginBottom=0;rounded=0;shadow=0;glass=0;sketch=1;strokeColor=#82b366;fontFamily=Lucida Console;html=1;fontSize=14;" parent="vq10Wp0aYiQOO_JATJNM-88" vertex="1">
          <mxGeometry x="1120" y="56.85999999999996" width="318" height="88.27848101265823" as="geometry">
            <mxRectangle x="1020" y="290" width="100" height="50" as="alternateBounds" />
          </mxGeometry>
        </mxCell>
        <mxCell id="vq10Wp0aYiQOO_JATJNM-235" value="+ Import(messages: IMessage[])" style="text;strokeColor=none;fillColor=none;align=left;verticalAlign=top;spacingLeft=4;spacingRight=4;overflow=hidden;rotatable=0;points=[[0,0.5],[1,0.5]];portConstraint=eastwest;fontFamily=Courier New;fontSize=14;" parent="vq10Wp0aYiQOO_JATJNM-233" vertex="1">
          <mxGeometry y="50" width="318" height="38.27848101265823" as="geometry" />
        </mxCell>
        <mxCell id="pbwpxvugvnZyUmwZ_y10-1" style="edgeStyle=orthogonalEdgeStyle;rounded=0;orthogonalLoop=1;jettySize=auto;html=1;exitX=0.5;exitY=1;exitDx=0;exitDy=0;entryX=0.5;entryY=0;entryDx=0;entryDy=0;strokeColor=#182E3E;fillColor=#dae8fc;fontFamily=Courier New;exitPerimeter=0;dashed=1;fontSize=14;endFill=0;endArrow=open;endSize=12;startSize=29;" edge="1" parent="vq10Wp0aYiQOO_JATJNM-88" source="ia7Ri7Av3f0508WHwBtR-13" target="ia7Ri7Av3f0508WHwBtR-6">
          <mxGeometry relative="1" as="geometry" />
        </mxCell>
        <mxCell id="ia7Ri7Av3f0508WHwBtR-5" value="StatusChangeMapper" style="swimlane;fontStyle=1;childLayout=stackLayout;horizontal=1;startSize=26;fillColor=none;horizontalStack=0;resizeParent=1;resizeParentMax=0;resizeLast=0;collapsible=1;marginBottom=0;rounded=0;shadow=0;glass=0;sketch=1;strokeColor=#82b366;fontFamily=Lucida Console;html=1;fontSize=14;" parent="vq10Wp0aYiQOO_JATJNM-88" vertex="1">
          <mxGeometry x="1470" y="60" width="404" height="56" as="geometry">
            <mxRectangle x="1486" y="202.53" width="196" height="28" as="alternateBounds" />
          </mxGeometry>
        </mxCell>
        <mxCell id="ia7Ri7Av3f0508WHwBtR-13" value="+ /Map(statusChange: UpdateChange): IMessage[]" style="text;strokeColor=none;fillColor=none;spacingLeft=4;spacingRight=4;overflow=hidden;rotatable=0;points=[[0,0.5],[1,0.5]];portConstraint=eastwest;fontSize=14;fontFamily=Courier New;" parent="ia7Ri7Av3f0508WHwBtR-5" vertex="1">
          <mxGeometry y="26" width="404" height="30" as="geometry" />
        </mxCell>
        <mxCell id="ia7Ri7Av3f0508WHwBtR-6" value="UpdateMapper" style="swimlane;fontStyle=1;childLayout=stackLayout;horizontal=1;startSize=26;fillColor=none;horizontalStack=0;resizeParent=1;resizeParentMax=0;resizeLast=0;collapsible=1;marginBottom=0;rounded=0;shadow=0;glass=0;sketch=1;strokeColor=#82b366;fontFamily=Lucida Console;html=1;fontSize=14;" parent="vq10Wp0aYiQOO_JATJNM-88" vertex="1">
          <mxGeometry x="1517" y="214" width="310" height="56" as="geometry" />
        </mxCell>
        <mxCell id="ia7Ri7Av3f0508WHwBtR-12" value="+ /Map(update: Update): IMessage[]" style="text;strokeColor=none;fillColor=none;spacingLeft=4;spacingRight=4;overflow=hidden;rotatable=0;points=[[0,0.5],[1,0.5]];portConstraint=eastwest;fontSize=14;fontFamily=Courier New;" parent="ia7Ri7Av3f0508WHwBtR-6" vertex="1">
          <mxGeometry y="26" width="310" height="30" as="geometry" />
        </mxCell>
        <mxCell id="ia7Ri7Av3f0508WHwBtR-43" value="ImportUpdatesJobCommand" style="swimlane;fontStyle=1;align=center;verticalAlign=middle;childLayout=stackLayout;horizontal=1;startSize=42;horizontalStack=0;resizeParent=1;resizeParentMax=0;resizeLast=0;collapsible=0;marginBottom=0;html=1;rounded=0;shadow=0;glass=0;sketch=1;strokeColor=#82b366;fillColor=none;fontFamily=Lucida Console;fontSize=14;" parent="vq10Wp0aYiQOO_JATJNM-88" vertex="1">
          <mxGeometry x="1486" y="305.45" width="384" height="182" as="geometry" />
        </mxCell>
        <mxCell id="ia7Ri7Av3f0508WHwBtR-44" value="~ jobId: Guid" style="text;html=1;strokeColor=none;fillColor=none;align=left;verticalAlign=middle;spacingLeft=4;spacingRight=4;overflow=hidden;rotatable=0;points=[[0,0.5],[1,0.5]];portConstraint=eastwest;fontFamily=Courier New;fontSize=14;" parent="ia7Ri7Av3f0508WHwBtR-43" vertex="1">
          <mxGeometry y="42" width="384" height="28" as="geometry" />
        </mxCell>
        <mxCell id="ia7Ri7Av3f0508WHwBtR-45" value="~ sourceQuery: UpdateSourceQuery" style="text;html=1;strokeColor=none;fillColor=none;align=left;verticalAlign=middle;spacingLeft=4;spacingRight=4;overflow=hidden;rotatable=0;points=[[0,0.5],[1,0.5]];portConstraint=eastwest;fontFamily=Courier New;fontSize=14;" parent="ia7Ri7Av3f0508WHwBtR-43" vertex="1">
          <mxGeometry y="70" width="384" height="28" as="geometry" />
        </mxCell>
        <mxCell id="ia7Ri7Av3f0508WHwBtR-46" value="~ createdBy: string" style="text;html=1;strokeColor=none;fillColor=none;align=left;verticalAlign=middle;spacingLeft=4;spacingRight=4;overflow=hidden;rotatable=0;points=[[0,0.5],[1,0.5]];portConstraint=eastwest;fontFamily=Courier New;fontSize=14;" parent="ia7Ri7Av3f0508WHwBtR-43" vertex="1">
          <mxGeometry y="98" width="384" height="28" as="geometry" />
        </mxCell>
        <mxCell id="ia7Ri7Av3f0508WHwBtR-47" value="~ createdOn: DateTimeOffset" style="text;html=1;strokeColor=none;fillColor=none;align=left;verticalAlign=middle;spacingLeft=4;spacingRight=4;overflow=hidden;rotatable=0;points=[[0,0.5],[1,0.5]];portConstraint=eastwest;fontFamily=Courier New;fontSize=14;" parent="ia7Ri7Av3f0508WHwBtR-43" vertex="1">
          <mxGeometry y="126" width="384" height="28" as="geometry" />
        </mxCell>
        <mxCell id="ia7Ri7Av3f0508WHwBtR-48" value="~ /metadata: MessageMetadata" style="text;html=1;strokeColor=none;fillColor=none;align=left;verticalAlign=middle;spacingLeft=4;spacingRight=4;overflow=hidden;rotatable=0;points=[[0,0.5],[1,0.5]];portConstraint=eastwest;fontFamily=Courier New;fontSize=14;" parent="ia7Ri7Av3f0508WHwBtR-43" vertex="1">
          <mxGeometry y="154" width="384" height="28" as="geometry" />
        </mxCell>
        <mxCell id="ia7Ri7Av3f0508WHwBtR-69" value="" style="group" parent="vq10Wp0aYiQOO_JATJNM-88" vertex="1" connectable="0">
          <mxGeometry x="1470" y="506.00000000000017" width="304" height="194" as="geometry" />
        </mxCell>
        <mxCell id="ia7Ri7Av3f0508WHwBtR-50" value="ImportChangesJobCommand" style="swimlane;fontStyle=1;align=center;verticalAlign=middle;childLayout=stackLayout;horizontal=1;startSize=42;horizontalStack=0;resizeParent=1;resizeParentMax=0;resizeLast=0;collapsible=0;marginBottom=0;html=1;rounded=0;shadow=0;glass=0;sketch=1;strokeColor=#82b366;fillColor=none;fontFamily=Lucida Console;fontSize=14;container=0;" parent="ia7Ri7Av3f0508WHwBtR-69" vertex="1">
          <mxGeometry x="20" y="20" width="264" height="154" as="geometry" />
        </mxCell>
        <mxCell id="ia7Ri7Av3f0508WHwBtR-51" value="~ jobId: Guid" style="text;html=1;strokeColor=none;fillColor=none;align=left;verticalAlign=middle;spacingLeft=4;spacingRight=4;overflow=hidden;rotatable=0;points=[[0,0.5],[1,0.5]];portConstraint=eastwest;fontFamily=Courier New;fontSize=14;" parent="ia7Ri7Av3f0508WHwBtR-69" vertex="1">
          <mxGeometry x="20" y="62.000000000000114" width="264" height="28" as="geometry" />
        </mxCell>
        <mxCell id="ia7Ri7Av3f0508WHwBtR-53" value="~ createdBy: string" style="text;html=1;strokeColor=none;fillColor=none;align=left;verticalAlign=middle;spacingLeft=4;spacingRight=4;overflow=hidden;rotatable=0;points=[[0,0.5],[1,0.5]];portConstraint=eastwest;fontFamily=Courier New;fontSize=14;" parent="ia7Ri7Av3f0508WHwBtR-69" vertex="1">
          <mxGeometry x="20" y="90.00000000000011" width="264" height="28" as="geometry" />
        </mxCell>
        <mxCell id="ia7Ri7Av3f0508WHwBtR-54" value="~ createdOn: DateTimeOffset" style="text;html=1;strokeColor=none;fillColor=none;align=left;verticalAlign=middle;spacingLeft=4;spacingRight=4;overflow=hidden;rotatable=0;points=[[0,0.5],[1,0.5]];portConstraint=eastwest;fontFamily=Courier New;fontSize=14;" parent="ia7Ri7Av3f0508WHwBtR-69" vertex="1">
          <mxGeometry x="20" y="118.00000000000011" width="264" height="28" as="geometry" />
        </mxCell>
        <mxCell id="ia7Ri7Av3f0508WHwBtR-55" value="~ /metadata: MessageMetadata" style="text;html=1;strokeColor=none;fillColor=none;align=left;verticalAlign=middle;spacingLeft=4;spacingRight=4;overflow=hidden;rotatable=0;points=[[0,0.5],[1,0.5]];portConstraint=eastwest;fontFamily=Courier New;fontSize=14;" parent="ia7Ri7Av3f0508WHwBtR-69" vertex="1">
          <mxGeometry x="20" y="146.0000000000001" width="264" height="28" as="geometry" />
        </mxCell>
        <mxCell id="vq10Wp0aYiQOO_JATJNM-141" value="&lt;div&gt;SynchronizationJob&lt;br&gt;&lt;/div&gt;" style="swimlane;fontStyle=3;childLayout=stackLayout;horizontal=1;startSize=50;fillColor=none;horizontalStack=0;resizeParent=1;resizeParentMax=0;resizeLast=0;collapsible=1;marginBottom=0;rounded=0;shadow=0;glass=0;sketch=1;strokeColor=#82b366;fontFamily=Lucida Console;html=1;fontSize=14;" parent="vq10Wp0aYiQOO_JATJNM-88" vertex="1">
          <mxGeometry x="13.996395657342447" y="56.85780498809379" width="312" height="290" as="geometry">
            <mxRectangle x="830" y="50" width="200" height="50" as="alternateBounds" />
          </mxGeometry>
        </mxCell>
        <mxCell id="vq10Wp0aYiQOO_JATJNM-146" value="+ ImportNext()" style="text;strokeColor=none;fillColor=none;align=left;verticalAlign=top;spacingLeft=4;spacingRight=4;overflow=hidden;rotatable=0;points=[[0,0.5],[1,0.5]];portConstraint=eastwest;fontFamily=Courier New;fontSize=14;fontStyle=2" parent="vq10Wp0aYiQOO_JATJNM-141" vertex="1">
          <mxGeometry y="50" width="312" height="30" as="geometry" />
        </mxCell>
        <mxCell id="c3qGKdSlmFXIAMFMvV2--6" value="+ GetTotalCount()" style="text;strokeColor=none;fillColor=none;align=left;verticalAlign=top;spacingLeft=4;spacingRight=4;overflow=hidden;rotatable=0;points=[[0,0.5],[1,0.5]];portConstraint=eastwest;fontFamily=Courier New;fontSize=14;fontStyle=2" parent="vq10Wp0aYiQOO_JATJNM-141" vertex="1">
          <mxGeometry y="80" width="312" height="30" as="geometry" />
        </mxCell>
        <mxCell id="vq10Wp0aYiQOO_JATJNM-142" value="+ Start()" style="text;strokeColor=none;fillColor=none;align=left;verticalAlign=top;spacingLeft=4;spacingRight=4;overflow=hidden;rotatable=0;points=[[0,0.5],[1,0.5]];portConstraint=eastwest;fontFamily=Courier New;fontSize=14;" parent="vq10Wp0aYiQOO_JATJNM-141" vertex="1">
          <mxGeometry y="110" width="312" height="30" as="geometry" />
        </mxCell>
        <mxCell id="vq10Wp0aYiQOO_JATJNM-143" value="+ Pause()" style="text;strokeColor=none;fillColor=none;align=left;verticalAlign=top;spacingLeft=4;spacingRight=4;overflow=hidden;rotatable=0;points=[[0,0.5],[1,0.5]];portConstraint=eastwest;fontFamily=Courier New;fontSize=14;" parent="vq10Wp0aYiQOO_JATJNM-141" vertex="1">
          <mxGeometry y="140" width="312" height="30" as="geometry" />
        </mxCell>
        <mxCell id="vq10Wp0aYiQOO_JATJNM-144" value="+ Resume()" style="text;strokeColor=none;fillColor=none;align=left;verticalAlign=top;spacingLeft=4;spacingRight=4;overflow=hidden;rotatable=0;points=[[0,0.5],[1,0.5]];portConstraint=eastwest;fontFamily=Courier New;fontSize=14;" parent="vq10Wp0aYiQOO_JATJNM-141" vertex="1">
          <mxGeometry y="170" width="312" height="30" as="geometry" />
        </mxCell>
        <mxCell id="vq10Wp0aYiQOO_JATJNM-145" value="+ Cancel()" style="text;strokeColor=none;fillColor=none;align=left;verticalAlign=top;spacingLeft=4;spacingRight=4;overflow=hidden;rotatable=0;points=[[0,0.5],[1,0.5]];portConstraint=eastwest;fontFamily=Courier New;fontSize=14;" parent="vq10Wp0aYiQOO_JATJNM-141" vertex="1">
          <mxGeometry y="200" width="312" height="30" as="geometry" />
        </mxCell>
        <mxCell id="c3qGKdSlmFXIAMFMvV2--5" value="+ Event_ReportProgress()" style="text;strokeColor=none;fillColor=none;align=left;verticalAlign=top;spacingLeft=4;spacingRight=4;overflow=hidden;rotatable=0;points=[[0,0.5],[1,0.5]];portConstraint=eastwest;fontFamily=Courier New;fontSize=14;" parent="vq10Wp0aYiQOO_JATJNM-141" vertex="1">
          <mxGeometry y="230" width="312" height="30" as="geometry" />
        </mxCell>
        <mxCell id="vq10Wp0aYiQOO_JATJNM-147" value="+ Event_NotifyStatusChange()" style="text;strokeColor=none;fillColor=none;align=left;verticalAlign=top;spacingLeft=4;spacingRight=4;overflow=hidden;rotatable=0;points=[[0,0.5],[1,0.5]];portConstraint=eastwest;fontFamily=Courier New;fontSize=14;" parent="vq10Wp0aYiQOO_JATJNM-141" vertex="1">
          <mxGeometry y="260" width="312" height="30" as="geometry" />
        </mxCell>
        <mxCell id="vq10Wp0aYiQOO_JATJNM-162" value="Analysis.Updates.Synchronization.Persistence" style="shape=folder;fontStyle=1;tabWidth=462;tabHeight=42;tabPosition=left;html=1;boundedLbl=1;labelInHeader=1;rounded=0;shadow=0;glass=0;labelBackgroundColor=none;sketch=1;startSize=50;strokeColor=#82b366;fillColor=#ffffff;fontFamily=Lucida Console;fontSize=14;recursiveResize=0;swimlaneFillColor=#ffffff;" parent="1" vertex="1">
          <mxGeometry x="320" y="1302" width="1598" height="532" as="geometry" />
        </mxCell>
        <mxCell id="vq10Wp0aYiQOO_JATJNM-104" value="REQCUpdateChangesSource" style="swimlane;fontStyle=1;childLayout=stackLayout;horizontal=1;startSize=40;fillColor=none;horizontalStack=0;resizeParent=1;resizeParentMax=0;resizeLast=0;collapsible=1;marginBottom=0;rounded=0;shadow=0;glass=0;sketch=1;strokeColor=#82b366;fontFamily=Lucida Console;html=1;fontSize=14;aspect=fixed;verticalAlign=middle;" parent="vq10Wp0aYiQOO_JATJNM-162" vertex="1">
          <mxGeometry x="30" y="220.39" width="614" height="100.89142857142858" as="geometry">
            <mxRectangle x="830" y="200" width="200" height="40" as="alternateBounds" />
          </mxGeometry>
        </mxCell>
        <mxCell id="pbwpxvugvnZyUmwZ_y10-26" value="+ /Next(query: UpdateChangesSourceQuery, cursor: int): UpdateChange" style="text;strokeColor=none;fillColor=none;align=left;verticalAlign=middle;spacingLeft=4;spacingRight=4;overflow=hidden;rotatable=0;points=[[0,0.5],[1,0.5]];portConstraint=eastwest;fontFamily=Courier New;fontSize=14;" vertex="1" parent="vq10Wp0aYiQOO_JATJNM-104">
          <mxGeometry y="40" width="614" height="30.445714285714285" as="geometry" />
        </mxCell>
        <mxCell id="pbwpxvugvnZyUmwZ_y10-27" value="+ /Total(query: UpdateChangesSourceQuery): long" style="text;strokeColor=none;fillColor=none;align=left;verticalAlign=middle;spacingLeft=4;spacingRight=4;overflow=hidden;rotatable=0;points=[[0,0.5],[1,0.5]];portConstraint=eastwest;fontFamily=Courier New;fontSize=14;" vertex="1" parent="vq10Wp0aYiQOO_JATJNM-104">
          <mxGeometry y="70.44571428571429" width="614" height="30.445714285714285" as="geometry" />
        </mxCell>
        <mxCell id="vq10Wp0aYiQOO_JATJNM-97" value="REQCUpdateImportSource" style="swimlane;fontStyle=1;childLayout=stackLayout;horizontal=1;startSize=36;fillColor=none;horizontalStack=0;resizeParent=1;resizeParentMax=0;resizeLast=0;collapsible=1;marginBottom=0;rounded=0;shadow=0;glass=0;sketch=1;strokeColor=#82b366;fontFamily=Lucida Console;html=1;fontSize=14;" parent="vq10Wp0aYiQOO_JATJNM-162" vertex="1">
          <mxGeometry x="30" y="355" width="488" height="96.89142857142858" as="geometry">
            <mxRectangle x="830" y="50" width="200" height="50" as="alternateBounds" />
          </mxGeometry>
        </mxCell>
        <mxCell id="pbwpxvugvnZyUmwZ_y10-24" value="+ /Next(query: UpdateSourceQuery, cursor: int): Update" style="text;strokeColor=none;fillColor=none;align=left;verticalAlign=middle;spacingLeft=4;spacingRight=4;overflow=hidden;rotatable=0;points=[[0,0.5],[1,0.5]];portConstraint=eastwest;fontFamily=Courier New;fontSize=14;" vertex="1" parent="vq10Wp0aYiQOO_JATJNM-97">
          <mxGeometry y="36" width="488" height="30.445714285714285" as="geometry" />
        </mxCell>
        <mxCell id="pbwpxvugvnZyUmwZ_y10-25" value="+ /Total(query: UpdateSourceQuery): long" style="text;strokeColor=none;fillColor=none;align=left;verticalAlign=middle;spacingLeft=4;spacingRight=4;overflow=hidden;rotatable=0;points=[[0,0.5],[1,0.5]];portConstraint=eastwest;fontFamily=Courier New;fontSize=14;" vertex="1" parent="vq10Wp0aYiQOO_JATJNM-97">
          <mxGeometry y="66.44571428571429" width="488" height="30.445714285714285" as="geometry" />
        </mxCell>
        <mxCell id="vq10Wp0aYiQOO_JATJNM-156" style="edgeStyle=orthogonalEdgeStyle;rounded=0;orthogonalLoop=1;jettySize=auto;html=1;strokeColor=#182E3E;fillColor=#dae8fc;fontFamily=Lucida Console;fontSize=14;fontColor=#1A1A1A;dashed=1;endFill=0;endArrow=block;endSize=12;entryX=0;entryY=0.5;entryDx=0;entryDy=0;" parent="vq10Wp0aYiQOO_JATJNM-162" source="vq10Wp0aYiQOO_JATJNM-97" target="vq10Wp0aYiQOO_JATJNM-136" edge="1">
          <mxGeometry relative="1" as="geometry">
            <Array as="points">
              <mxPoint x="16" y="404" />
              <mxPoint x="16" y="121" />
            </Array>
          </mxGeometry>
        </mxCell>
        <mxCell id="vq10Wp0aYiQOO_JATJNM-155" style="edgeStyle=orthogonalEdgeStyle;rounded=0;orthogonalLoop=1;jettySize=auto;html=1;exitX=0.5;exitY=0;exitDx=0;exitDy=0;fillColor=#dae8fc;fontFamily=Lucida Console;fontSize=14;fontColor=#1A1A1A;dashed=1;endFill=0;endArrow=block;endSize=12;strokeColor=#182E3E;" parent="vq10Wp0aYiQOO_JATJNM-162" source="vq10Wp0aYiQOO_JATJNM-104" target="vq10Wp0aYiQOO_JATJNM-135" edge="1">
          <mxGeometry relative="1" as="geometry">
            <Array as="points">
              <mxPoint x="295" y="199" />
              <mxPoint x="576" y="199" />
            </Array>
          </mxGeometry>
        </mxCell>
        <mxCell id="vq10Wp0aYiQOO_JATJNM-135" value="&lt;div&gt;&amp;lt;&amp;lt;interface&amp;gt;&amp;gt;&lt;/div&gt;IImportSource&amp;lt;TResult, TQuery&amp;gt; where TQuery : SourceQuery" style="swimlane;fontStyle=1;childLayout=stackLayout;horizontal=1;startSize=50;fillColor=none;horizontalStack=0;resizeParent=1;resizeParentMax=0;resizeLast=0;collapsible=1;marginBottom=0;rounded=0;shadow=0;glass=0;sketch=1;strokeColor=#82b366;fontFamily=Lucida Console;html=1;fontSize=14;" parent="vq10Wp0aYiQOO_JATJNM-162" vertex="1">
          <mxGeometry x="252" y="56" width="574" height="110.89142857142858" as="geometry">
            <mxRectangle x="830" y="50" width="200" height="50" as="alternateBounds" />
          </mxGeometry>
        </mxCell>
        <mxCell id="vq10Wp0aYiQOO_JATJNM-136" value="+ Next(query: TQuery, cursor: int): TResult" style="text;strokeColor=none;fillColor=none;align=left;verticalAlign=middle;spacingLeft=4;spacingRight=4;overflow=hidden;rotatable=0;points=[[0,0.5],[1,0.5]];portConstraint=eastwest;fontFamily=Courier New;fontSize=14;" parent="vq10Wp0aYiQOO_JATJNM-135" vertex="1">
          <mxGeometry y="50" width="574" height="30.445714285714285" as="geometry" />
        </mxCell>
        <mxCell id="vq10Wp0aYiQOO_JATJNM-137" value="+ Total(query: TQuery): long" style="text;strokeColor=none;fillColor=none;align=left;verticalAlign=middle;spacingLeft=4;spacingRight=4;overflow=hidden;rotatable=0;points=[[0,0.5],[1,0.5]];portConstraint=eastwest;fontFamily=Courier New;fontSize=14;" parent="vq10Wp0aYiQOO_JATJNM-135" vertex="1">
          <mxGeometry y="80.44571428571429" width="574" height="30.445714285714285" as="geometry" />
        </mxCell>
        <mxCell id="pbwpxvugvnZyUmwZ_y10-14" style="edgeStyle=orthogonalEdgeStyle;rounded=0;orthogonalLoop=1;jettySize=auto;html=1;strokeColor=#182E3E;fillColor=#dae8fc;fontFamily=Lucida Console;fontSize=14;fontColor=#1A1A1A;endFill=0;endArrow=block;endSize=12;" edge="1" parent="vq10Wp0aYiQOO_JATJNM-162" source="ia7Ri7Av3f0508WHwBtR-25" target="pbwpxvugvnZyUmwZ_y10-9">
          <mxGeometry relative="1" as="geometry">
            <Array as="points">
              <mxPoint x="1026" y="140" />
            </Array>
          </mxGeometry>
        </mxCell>
        <mxCell id="ia7Ri7Av3f0508WHwBtR-25" value="UpdateSourceQuery" style="swimlane;fontStyle=1;align=center;verticalAlign=middle;childLayout=stackLayout;horizontal=1;startSize=29;horizontalStack=0;resizeParent=1;resizeParentMax=0;resizeLast=0;collapsible=0;marginBottom=0;html=1;rounded=0;shadow=0;glass=0;sketch=1;strokeColor=#82b366;fillColor=none;fontFamily=Courier New;fontSize=14;" parent="vq10Wp0aYiQOO_JATJNM-162" vertex="1">
          <mxGeometry x="856" y="364" width="339" height="150.78285714285715" as="geometry" />
        </mxCell>
        <mxCell id="ia7Ri7Av3f0508WHwBtR-28" value="+ updateType: string" style="text;strokeColor=none;fillColor=none;align=left;verticalAlign=middle;spacingLeft=4;spacingRight=4;overflow=hidden;rotatable=0;points=[[0,0.5],[1,0.5]];portConstraint=eastwest;fontFamily=Courier New;fontSize=14;" parent="ia7Ri7Av3f0508WHwBtR-25" vertex="1">
          <mxGeometry y="29" width="339" height="30.445714285714285" as="geometry" />
        </mxCell>
        <mxCell id="ia7Ri7Av3f0508WHwBtR-29" value="+ updateId: string" style="text;strokeColor=none;fillColor=none;align=left;verticalAlign=middle;spacingLeft=4;spacingRight=4;overflow=hidden;rotatable=0;points=[[0,0.5],[1,0.5]];portConstraint=eastwest;fontFamily=Courier New;fontSize=14;" parent="ia7Ri7Av3f0508WHwBtR-25" vertex="1">
          <mxGeometry y="59.44571428571429" width="339" height="30.445714285714285" as="geometry" />
        </mxCell>
        <mxCell id="pbwpxvugvnZyUmwZ_y10-19" value="+ /take: int" style="text;strokeColor=none;fillColor=none;align=left;verticalAlign=middle;spacingLeft=4;spacingRight=4;overflow=hidden;rotatable=0;points=[[0,0.5],[1,0.5]];portConstraint=eastwest;fontFamily=Courier New;fontSize=14;" vertex="1" parent="ia7Ri7Av3f0508WHwBtR-25">
          <mxGeometry y="89.89142857142858" width="339" height="30.445714285714285" as="geometry" />
        </mxCell>
        <mxCell id="pbwpxvugvnZyUmwZ_y10-18" value="+ /skip: int" style="text;strokeColor=none;fillColor=none;align=left;verticalAlign=middle;spacingLeft=4;spacingRight=4;overflow=hidden;rotatable=0;points=[[0,0.5],[1,0.5]];portConstraint=eastwest;fontFamily=Courier New;fontSize=14;" vertex="1" parent="ia7Ri7Av3f0508WHwBtR-25">
          <mxGeometry y="120.33714285714287" width="339" height="30.445714285714285" as="geometry" />
        </mxCell>
        <mxCell id="ia7Ri7Av3f0508WHwBtR-32" style="edgeStyle=orthogonalEdgeStyle;orthogonalLoop=1;jettySize=auto;html=1;startSize=29;fillColor=#dae8fc;fontFamily=Courier New;fontSize=14;dashed=1;strokeColor=#182E3E;endArrow=open;endFill=0;endSize=12;rounded=0;exitX=1;exitY=0.5;exitDx=0;exitDy=0;jumpStyle=arc;entryX=0;entryY=0.5;entryDx=0;entryDy=0;" parent="vq10Wp0aYiQOO_JATJNM-162" source="vq10Wp0aYiQOO_JATJNM-136" target="pbwpxvugvnZyUmwZ_y10-12" edge="1">
          <mxGeometry relative="1" as="geometry">
            <mxPoint x="940" y="121" as="targetPoint" />
            <Array as="points" />
          </mxGeometry>
        </mxCell>
        <mxCell id="pbwpxvugvnZyUmwZ_y10-9" value="SourceQuery" style="swimlane;fontStyle=1;align=center;verticalAlign=middle;childLayout=stackLayout;horizontal=1;startSize=29;horizontalStack=0;resizeParent=1;resizeParentMax=0;resizeLast=0;collapsible=0;marginBottom=0;html=1;rounded=0;shadow=0;glass=0;sketch=1;strokeColor=#82b366;fillColor=none;fontFamily=Courier New;fontSize=14;" vertex="1" parent="vq10Wp0aYiQOO_JATJNM-162">
          <mxGeometry x="1164" y="77" width="339" height="89.89142857142858" as="geometry" />
        </mxCell>
        <mxCell id="pbwpxvugvnZyUmwZ_y10-12" value="+ skip: int" style="text;strokeColor=none;fillColor=none;align=left;verticalAlign=middle;spacingLeft=4;spacingRight=4;overflow=hidden;rotatable=0;points=[[0,0.5],[1,0.5]];portConstraint=eastwest;fontFamily=Courier New;fontSize=14;" vertex="1" parent="pbwpxvugvnZyUmwZ_y10-9">
          <mxGeometry y="29" width="339" height="30.445714285714285" as="geometry" />
        </mxCell>
        <mxCell id="pbwpxvugvnZyUmwZ_y10-13" value="+ take: int" style="text;strokeColor=none;fillColor=none;align=left;verticalAlign=middle;spacingLeft=4;spacingRight=4;overflow=hidden;rotatable=0;points=[[0,0.5],[1,0.5]];portConstraint=eastwest;fontFamily=Courier New;fontSize=14;" vertex="1" parent="pbwpxvugvnZyUmwZ_y10-9">
          <mxGeometry y="59.44571428571429" width="339" height="30.445714285714285" as="geometry" />
        </mxCell>
        <mxCell id="pbwpxvugvnZyUmwZ_y10-23" style="edgeStyle=orthogonalEdgeStyle;rounded=0;orthogonalLoop=1;jettySize=auto;html=1;exitX=0.5;exitY=0;exitDx=0;exitDy=0;strokeColor=#182E3E;fillColor=#dae8fc;fontFamily=Lucida Console;fontSize=14;fontColor=#1A1A1A;endFill=0;endArrow=block;endSize=12;" edge="1" parent="vq10Wp0aYiQOO_JATJNM-162" source="pbwpxvugvnZyUmwZ_y10-15" target="pbwpxvugvnZyUmwZ_y10-9">
          <mxGeometry relative="1" as="geometry" />
        </mxCell>
        <mxCell id="pbwpxvugvnZyUmwZ_y10-15" value="UpdateChangesSourceQuery" style="swimlane;fontStyle=1;align=center;verticalAlign=middle;childLayout=stackLayout;horizontal=1;startSize=29;horizontalStack=0;resizeParent=1;resizeParentMax=0;resizeLast=0;collapsible=0;marginBottom=0;html=1;rounded=0;shadow=0;glass=0;sketch=1;strokeColor=#82b366;fillColor=none;fontFamily=Courier New;fontSize=14;" vertex="1" parent="vq10Wp0aYiQOO_JATJNM-162">
          <mxGeometry x="1178" y="215.44" width="339" height="120.33714285714287" as="geometry" />
        </mxCell>
        <mxCell id="pbwpxvugvnZyUmwZ_y10-20" value="+ lastSynchronizationDate: DateTimeOffset" style="text;strokeColor=none;fillColor=none;align=left;verticalAlign=middle;spacingLeft=4;spacingRight=4;overflow=hidden;rotatable=0;points=[[0,0.5],[1,0.5]];portConstraint=eastwest;fontFamily=Courier New;fontSize=14;" vertex="1" parent="pbwpxvugvnZyUmwZ_y10-15">
          <mxGeometry y="29" width="339" height="30.445714285714285" as="geometry" />
        </mxCell>
        <mxCell id="pbwpxvugvnZyUmwZ_y10-22" value="+ /take: int" style="text;strokeColor=none;fillColor=none;align=left;verticalAlign=middle;spacingLeft=4;spacingRight=4;overflow=hidden;rotatable=0;points=[[0,0.5],[1,0.5]];portConstraint=eastwest;fontFamily=Courier New;fontSize=14;" vertex="1" parent="pbwpxvugvnZyUmwZ_y10-15">
          <mxGeometry y="59.44571428571429" width="339" height="30.445714285714285" as="geometry" />
        </mxCell>
        <mxCell id="pbwpxvugvnZyUmwZ_y10-21" value="+ /skip: int" style="text;strokeColor=none;fillColor=none;align=left;verticalAlign=middle;spacingLeft=4;spacingRight=4;overflow=hidden;rotatable=0;points=[[0,0.5],[1,0.5]];portConstraint=eastwest;fontFamily=Courier New;fontSize=14;" vertex="1" parent="pbwpxvugvnZyUmwZ_y10-15">
          <mxGeometry y="89.89142857142858" width="339" height="30.445714285714285" as="geometry" />
        </mxCell>
        <mxCell id="pbwpxvugvnZyUmwZ_y10-28" style="edgeStyle=orthogonalEdgeStyle;rounded=0;orthogonalLoop=1;jettySize=auto;html=1;exitX=1;exitY=0.5;exitDx=0;exitDy=0;strokeColor=#182E3E;fillColor=#dae8fc;fontFamily=Courier New;dashed=1;fontSize=14;endFill=0;endArrow=open;endSize=12;startSize=29;" edge="1" parent="vq10Wp0aYiQOO_JATJNM-162" source="pbwpxvugvnZyUmwZ_y10-26" target="pbwpxvugvnZyUmwZ_y10-15">
          <mxGeometry relative="1" as="geometry">
            <Array as="points">
              <mxPoint x="1066" y="276" />
              <mxPoint x="1066" y="276" />
            </Array>
          </mxGeometry>
        </mxCell>
        <mxCell id="pbwpxvugvnZyUmwZ_y10-29" style="edgeStyle=orthogonalEdgeStyle;rounded=0;orthogonalLoop=1;jettySize=auto;html=1;strokeColor=#182E3E;fillColor=#dae8fc;fontFamily=Courier New;dashed=1;fontSize=14;endFill=0;endArrow=open;endSize=12;startSize=29;" edge="1" parent="vq10Wp0aYiQOO_JATJNM-162" target="ia7Ri7Av3f0508WHwBtR-25">
          <mxGeometry relative="1" as="geometry">
            <mxPoint x="518" y="378" as="sourcePoint" />
          </mxGeometry>
        </mxCell>
        <mxCell id="vq10Wp0aYiQOO_JATJNM-217" value="Fetch Changes Job Triggering" style="shape=umlFrame;whiteSpace=wrap;html=1;rounded=0;shadow=0;glass=0;labelBackgroundColor=none;sketch=1;startSize=50;strokeColor=#82b366;fillColor=#ffffff;fontFamily=Lucida Console;fontSize=14;align=center;width=308;height=28;container=1;recursiveResize=0;fontStyle=1;swimlaneFillColor=#ffffff;" parent="1" vertex="1">
          <mxGeometry x="320" y="1834" width="1318" height="490" as="geometry">
            <mxRectangle x="250" y="2548" width="280" height="28" as="alternateBounds" />
          </mxGeometry>
        </mxCell>
        <mxCell id="vq10Wp0aYiQOO_JATJNM-216" value="Analysis.Updates.Synchronization" style="text;align=center;rounded=0;shadow=0;glass=0;labelBackgroundColor=none;sketch=1;startSize=26;strokeColor=#666666;fillColor=#f5f5f5;fontFamily=Lucida Console;fontSize=14;html=1;fontColor=#333333;container=1;" parent="vq10Wp0aYiQOO_JATJNM-217" vertex="1">
          <mxGeometry x="756" y="98" width="504" height="364" as="geometry" />
        </mxCell>
        <mxCell id="vq10Wp0aYiQOO_JATJNM-201" value="SyncChangesJobTrigger" style="shape=umlLifeline;perimeter=lifelinePerimeter;whiteSpace=wrap;html=1;container=1;collapsible=0;recursiveResize=0;outlineConnect=0;rounded=0;shadow=0;glass=0;labelBackgroundColor=none;sketch=1;startSize=26;strokeColor=#82b366;fillColor=#ffffff;fontFamily=Lucida Console;fontSize=14;" parent="vq10Wp0aYiQOO_JATJNM-216" vertex="1">
          <mxGeometry x="44" y="56" width="192.47" height="308" as="geometry" />
        </mxCell>
        <mxCell id="vq10Wp0aYiQOO_JATJNM-209" value="" style="html=1;points=[];perimeter=orthogonalPerimeter;rounded=0;shadow=0;glass=0;labelBackgroundColor=none;sketch=1;startSize=26;strokeColor=#82b366;fillColor=#ffffff;fontFamily=Lucida Console;fontSize=14;" parent="vq10Wp0aYiQOO_JATJNM-201" vertex="1">
          <mxGeometry x="90.61277781264718" y="126" width="11.234894529006137" height="80" as="geometry" />
        </mxCell>
        <mxCell id="vq10Wp0aYiQOO_JATJNM-202" value="MessageEmitter" style="shape=umlLifeline;perimeter=lifelinePerimeter;whiteSpace=wrap;html=1;container=1;collapsible=0;recursiveResize=0;outlineConnect=0;rounded=0;shadow=0;glass=0;labelBackgroundColor=none;sketch=1;startSize=26;strokeColor=#82b366;fillColor=#ffffff;fontFamily=Lucida Console;fontSize=14;" parent="vq10Wp0aYiQOO_JATJNM-216" vertex="1">
          <mxGeometry x="282" y="56" width="180.72" height="308" as="geometry" />
        </mxCell>
        <mxCell id="vq10Wp0aYiQOO_JATJNM-211" value="" style="html=1;points=[];perimeter=orthogonalPerimeter;rounded=0;shadow=0;glass=0;labelBackgroundColor=none;sketch=1;startSize=26;strokeColor=#82b366;fillColor=#ffffff;fontFamily=Lucida Console;fontSize=14;" parent="vq10Wp0aYiQOO_JATJNM-202" vertex="1">
          <mxGeometry x="84.74451911975704" y="196" width="11.234894529006132" height="80" as="geometry" />
        </mxCell>
        <mxCell id="vq10Wp0aYiQOO_JATJNM-212" value="EmitFetchChangesCommand" style="html=1;verticalAlign=bottom;endArrow=open;entryX=0;entryY=0;strokeColor=#182E3E;fillColor=#dae8fc;fontFamily=Lucida Console;fontSize=14;fontColor=#1A1A1A;endFill=0;" parent="vq10Wp0aYiQOO_JATJNM-216" source="vq10Wp0aYiQOO_JATJNM-201" target="vq10Wp0aYiQOO_JATJNM-211" edge="1">
          <mxGeometry x="-0.0595" relative="1" as="geometry">
            <mxPoint x="142.2389902695567" y="210" as="sourcePoint" />
            <mxPoint as="offset" />
          </mxGeometry>
        </mxCell>
        <mxCell id="vq10Wp0aYiQOO_JATJNM-215" value="&lt;div align=&quot;center&quot;&gt;Quartz.NET&lt;/div&gt;" style="text;align=center;rounded=0;shadow=0;glass=0;labelBackgroundColor=none;sketch=1;startSize=26;fontFamily=Lucida Console;fontSize=14;html=1;fillColor=#f5f5f5;strokeColor=#666666;fontColor=#333333;container=1;" parent="vq10Wp0aYiQOO_JATJNM-217" vertex="1">
          <mxGeometry x="64.76" y="98" width="649.24" height="364" as="geometry" />
        </mxCell>
        <mxCell id="vq10Wp0aYiQOO_JATJNM-200" value="JobRunner" style="shape=umlLifeline;perimeter=lifelinePerimeter;whiteSpace=wrap;html=1;container=1;collapsible=0;recursiveResize=0;outlineConnect=0;rounded=0;shadow=0;glass=0;labelBackgroundColor=none;sketch=1;startSize=26;strokeColor=#82b366;fillColor=#ffffff;fontFamily=Lucida Console;fontSize=14;" parent="vq10Wp0aYiQOO_JATJNM-215" vertex="1">
          <mxGeometry x="427.23899755501225" y="56" width="147.18826405867972" height="308" as="geometry" />
        </mxCell>
        <mxCell id="vq10Wp0aYiQOO_JATJNM-205" value="" style="html=1;points=[];perimeter=orthogonalPerimeter;rounded=0;shadow=0;glass=0;labelBackgroundColor=none;sketch=1;startSize=26;strokeColor=#82b366;fillColor=#ffffff;fontFamily=Lucida Console;fontSize=14;" parent="vq10Wp0aYiQOO_JATJNM-200" vertex="1">
          <mxGeometry x="66.23471882640587" y="70" width="14.718826405867972" height="70" as="geometry" />
        </mxCell>
        <mxCell id="vq10Wp0aYiQOO_JATJNM-199" value="Scheduler" style="shape=umlLifeline;perimeter=lifelinePerimeter;whiteSpace=wrap;html=1;container=1;collapsible=0;recursiveResize=0;outlineConnect=0;rounded=0;shadow=0;glass=0;labelBackgroundColor=none;sketch=1;startSize=26;strokeColor=#82b366;fillColor=#ffffff;fontFamily=Lucida Console;fontSize=14;" parent="vq10Wp0aYiQOO_JATJNM-215" vertex="1">
          <mxGeometry x="63.23919315403424" y="56" width="347.00080684596577" height="308" as="geometry" />
        </mxCell>
        <mxCell id="vq10Wp0aYiQOO_JATJNM-203" value="" style="html=1;points=[];perimeter=orthogonalPerimeter;rounded=0;shadow=0;glass=0;labelBackgroundColor=none;sketch=1;startSize=26;strokeColor=#82b366;fillColor=#ffffff;fontFamily=Lucida Console;fontSize=14;" parent="vq10Wp0aYiQOO_JATJNM-199" vertex="1">
          <mxGeometry x="166.14" y="63" width="14.72" height="63" as="geometry" />
        </mxCell>
        <mxCell id="vq10Wp0aYiQOO_JATJNM-207" value="TriggerJob" style="html=1;verticalAlign=bottom;endArrow=open;entryX=0;entryY=0.025;strokeColor=#182E3E;fillColor=#dae8fc;fontFamily=Lucida Console;fontSize=14;fontColor=#1A1A1A;entryDx=0;entryDy=0;entryPerimeter=0;rounded=1;endFill=0;" parent="vq10Wp0aYiQOO_JATJNM-215" source="vq10Wp0aYiQOO_JATJNM-203" target="vq10Wp0aYiQOO_JATJNM-205" edge="1">
          <mxGeometry x="-0.019" relative="1" as="geometry">
            <mxPoint x="144.24733496332524" y="128" as="sourcePoint" />
            <mxPoint as="offset" />
          </mxGeometry>
        </mxCell>
        <mxCell id="vq10Wp0aYiQOO_JATJNM-221" value="alt" style="shape=umlFrame;whiteSpace=wrap;html=1;rounded=0;shadow=0;glass=0;labelBackgroundColor=none;sketch=1;startSize=26;strokeColor=#82b366;fillColor=#ffffff;fontFamily=Lucida Console;fontSize=14;align=center;" parent="vq10Wp0aYiQOO_JATJNM-215" vertex="1">
          <mxGeometry x="99.24" y="110" width="208.76" height="86" as="geometry" />
        </mxCell>
        <mxCell id="vq10Wp0aYiQOO_JATJNM-222" value="[shouldTriggerJob]" style="text;html=1;resizable=0;autosize=1;align=center;verticalAlign=middle;points=[];fillColor=none;strokeColor=none;rounded=0;shadow=0;glass=0;labelBackgroundColor=none;sketch=1;startSize=26;fontFamily=Lucida Console;fontSize=11;" parent="vq10Wp0aYiQOO_JATJNM-215" vertex="1">
          <mxGeometry x="91.24000000000001" y="154" width="140" height="14" as="geometry" />
        </mxCell>
        <mxCell id="vq10Wp0aYiQOO_JATJNM-210" value="RunJob" style="html=1;verticalAlign=bottom;startArrow=none;endArrow=open;startSize=8;strokeColor=#182E3E;fillColor=#dae8fc;fontFamily=Lucida Console;fontSize=14;fontColor=#1A1A1A;startFill=0;endFill=0;" parent="vq10Wp0aYiQOO_JATJNM-217" source="vq10Wp0aYiQOO_JATJNM-205" target="vq10Wp0aYiQOO_JATJNM-209" edge="1">
          <mxGeometry x="0.0551" relative="1" as="geometry">
            <mxPoint x="456.28361858190715" y="280" as="sourcePoint" />
            <mxPoint as="offset" />
          </mxGeometry>
        </mxCell>
        <mxCell id="vq10Wp0aYiQOO_JATJNM-220" value="while (True)" style="shape=umlFrame;whiteSpace=wrap;html=1;rounded=0;shadow=0;glass=0;labelBackgroundColor=none;sketch=1;startSize=26;strokeColor=#82b366;fillColor=#ffffff;fontFamily=Lucida Console;fontSize=14;align=center;width=61;height=66;" parent="vq10Wp0aYiQOO_JATJNM-217" vertex="1">
          <mxGeometry x="80.88" y="200" width="297.12" height="108" as="geometry" />
        </mxCell>
        <mxCell id="ia7Ri7Av3f0508WHwBtR-18" value="&lt;div&gt;&amp;lt;&amp;lt;ext&amp;gt;&amp;gt;&lt;/div&gt;&lt;div&gt;Shared.MessageBus&lt;/div&gt;" style="shape=folder;fontStyle=1;tabWidth=252;tabHeight=42;tabPosition=left;html=1;boundedLbl=1;labelInHeader=1;rounded=0;shadow=0;glass=0;sketch=1;startSize=50;strokeColor=#82b366;fillColor=#ffffff;fontFamily=Lucida Console;fontSize=14;swimlaneFillColor=#ffffff;" parent="1" vertex="1">
          <mxGeometry x="2394" y="584" width="658" height="476" as="geometry" />
        </mxCell>
        <mxCell id="ia7Ri7Av3f0508WHwBtR-22" value="&lt;div&gt;&amp;lt;&amp;lt;interface&amp;gt;&amp;gt;&lt;br&gt;&lt;/div&gt;&lt;div&gt;IMessage&lt;/div&gt;" style="swimlane;fontStyle=1;align=center;verticalAlign=middle;childLayout=stackLayout;horizontal=1;startSize=42;horizontalStack=0;resizeParent=1;resizeParentMax=0;resizeLast=0;collapsible=0;marginBottom=0;html=1;rounded=0;shadow=0;glass=0;sketch=1;strokeColor=#82b366;fillColor=none;fontFamily=Lucida Console;fontSize=14;" parent="1" vertex="1">
          <mxGeometry x="2429" y="650" width="224" height="70" as="geometry" />
        </mxCell>
        <mxCell id="ia7Ri7Av3f0508WHwBtR-24" value="~ Metadata: MessageMetadata" style="text;html=1;strokeColor=none;fillColor=none;align=left;verticalAlign=middle;spacingLeft=4;spacingRight=4;overflow=hidden;rotatable=0;points=[[0,0.5],[1,0.5]];portConstraint=eastwest;fontFamily=Courier New;" parent="ia7Ri7Av3f0508WHwBtR-22" vertex="1">
          <mxGeometry y="42" width="224" height="28" as="geometry" />
        </mxCell>
        <mxCell id="ia7Ri7Av3f0508WHwBtR-40" style="edgeStyle=orthogonalEdgeStyle;rounded=0;orthogonalLoop=1;jettySize=auto;html=1;exitX=0.5;exitY=0;exitDx=0;exitDy=0;startSize=29;endArrow=block;endFill=0;endSize=12;strokeColor=#182E3E;fillColor=#dae8fc;fontFamily=Courier New;fontSize=14;" parent="1" source="ia7Ri7Av3f0508WHwBtR-37" target="ia7Ri7Av3f0508WHwBtR-22" edge="1">
          <mxGeometry relative="1" as="geometry" />
        </mxCell>
        <mxCell id="ia7Ri7Av3f0508WHwBtR-37" value="&lt;div&gt;&amp;lt;&amp;lt;interface&amp;gt;&amp;gt;&lt;br&gt;&lt;/div&gt;&lt;div&gt;IDomainCommand&amp;lt;TResult&amp;gt;&lt;br&gt;&lt;/div&gt;" style="swimlane;fontStyle=1;align=center;verticalAlign=middle;childLayout=stackLayout;horizontal=1;startSize=42;horizontalStack=0;resizeParent=1;resizeParentMax=0;resizeLast=0;collapsible=0;marginBottom=0;html=1;rounded=0;shadow=0;glass=0;sketch=1;strokeColor=#82b366;fillColor=none;fontFamily=Lucida Console;fontSize=14;" parent="1" vertex="1">
          <mxGeometry x="2429" y="794" width="224" height="70" as="geometry" />
        </mxCell>
        <mxCell id="ia7Ri7Av3f0508WHwBtR-38" value="~ Metadata: MessageMetadata" style="text;html=1;strokeColor=none;fillColor=none;align=left;verticalAlign=middle;spacingLeft=4;spacingRight=4;overflow=hidden;rotatable=0;points=[[0,0.5],[1,0.5]];portConstraint=eastwest;fontFamily=Courier New;" parent="ia7Ri7Av3f0508WHwBtR-37" vertex="1">
          <mxGeometry y="42" width="224" height="28" as="geometry" />
        </mxCell>
        <mxCell id="ia7Ri7Av3f0508WHwBtR-41" value="&lt;div&gt;CommandResult&lt;br&gt;&lt;/div&gt;" style="swimlane;fontStyle=1;align=center;verticalAlign=middle;childLayout=stackLayout;horizontal=1;startSize=42;horizontalStack=0;resizeParent=1;resizeParentMax=0;resizeLast=0;collapsible=0;marginBottom=0;html=1;rounded=0;shadow=0;glass=0;sketch=1;strokeColor=#82b366;fillColor=none;fontFamily=Lucida Console;fontSize=14;" parent="1" vertex="1">
          <mxGeometry x="2800" y="650" width="224" height="70" as="geometry" />
        </mxCell>
        <mxCell id="ia7Ri7Av3f0508WHwBtR-42" value="~ error: CommandError" style="text;html=1;strokeColor=none;fillColor=none;align=left;verticalAlign=middle;spacingLeft=4;spacingRight=4;overflow=hidden;rotatable=0;points=[[0,0.5],[1,0.5]];portConstraint=eastwest;fontFamily=Courier New;" parent="ia7Ri7Av3f0508WHwBtR-41" vertex="1">
          <mxGeometry y="42" width="224" height="28" as="geometry" />
        </mxCell>
        <mxCell id="ia7Ri7Av3f0508WHwBtR-49" style="edgeStyle=orthogonalEdgeStyle;rounded=0;orthogonalLoop=1;jettySize=auto;html=1;exitX=1;exitY=0.5;exitDx=0;exitDy=0;entryX=0;entryY=0.5;entryDx=0;entryDy=0;startSize=29;endArrow=block;endFill=0;endSize=12;strokeColor=#182E3E;fillColor=#dae8fc;fontFamily=Courier New;fontSize=14;dashed=1;" parent="1" source="ia7Ri7Av3f0508WHwBtR-45" target="ia7Ri7Av3f0508WHwBtR-37" edge="1">
          <mxGeometry relative="1" as="geometry" />
        </mxCell>
        <mxCell id="ia7Ri7Av3f0508WHwBtR-56" style="edgeStyle=orthogonalEdgeStyle;rounded=0;orthogonalLoop=1;jettySize=auto;html=1;exitX=1;exitY=0.5;exitDx=0;exitDy=0;startSize=29;endArrow=block;endFill=0;endSize=12;strokeColor=#182E3E;fillColor=#dae8fc;fontFamily=Courier New;fontSize=14;dashed=1;" parent="1" source="ia7Ri7Av3f0508WHwBtR-53" target="ia7Ri7Av3f0508WHwBtR-37" edge="1">
          <mxGeometry relative="1" as="geometry" />
        </mxCell>
        <mxCell id="ia7Ri7Av3f0508WHwBtR-68" style="edgeStyle=orthogonalEdgeStyle;rounded=0;orthogonalLoop=1;jettySize=auto;html=1;exitX=0.5;exitY=1;exitDx=0;exitDy=0;dashed=1;startSize=29;endArrow=open;endFill=0;endSize=12;strokeColor=#182E3E;fillColor=#dae8fc;fontFamily=Courier New;fontSize=14;jumpStyle=arc;" parent="1" source="ia7Ri7Av3f0508WHwBtR-43" target="ia7Ri7Av3f0508WHwBtR-25" edge="1">
          <mxGeometry relative="1" as="geometry">
            <Array as="points">
              <mxPoint x="2128" y="1072" />
              <mxPoint x="2128" y="1302" />
              <mxPoint x="1430" y="1302" />
            </Array>
          </mxGeometry>
        </mxCell>
        <mxCell id="c3qGKdSlmFXIAMFMvV2--1" style="edgeStyle=orthogonalEdgeStyle;rounded=0;orthogonalLoop=1;jettySize=auto;html=1;exitX=1;exitY=0.5;exitDx=0;exitDy=0;strokeColor=#182E3E;fillColor=#dae8fc;fontFamily=Courier New;jumpStyle=gap;dashed=1;fontSize=14;endFill=0;endArrow=open;endSize=12;startSize=29;" parent="1" source="ia7Ri7Av3f0508WHwBtR-6" target="ia7Ri7Av3f0508WHwBtR-24" edge="1">
          <mxGeometry relative="1" as="geometry">
            <mxPoint x="2429" y="714" as="targetPoint" />
            <Array as="points">
              <mxPoint x="2296" y="826" />
              <mxPoint x="2296" y="714" />
            </Array>
          </mxGeometry>
        </mxCell>
        <mxCell id="c3qGKdSlmFXIAMFMvV2--2" style="edgeStyle=orthogonalEdgeStyle;rounded=0;orthogonalLoop=1;jettySize=auto;html=1;exitX=0.5;exitY=0;exitDx=0;exitDy=0;entryX=0;entryY=0.5;entryDx=0;entryDy=0;strokeColor=#182E3E;fillColor=#dae8fc;fontFamily=Courier New;dashed=1;fontSize=14;endFill=0;endArrow=open;endSize=12;startSize=29;jumpStyle=gap;" parent="1" source="ia7Ri7Av3f0508WHwBtR-5" target="ia7Ri7Av3f0508WHwBtR-22" edge="1">
          <mxGeometry relative="1" as="geometry" />
        </mxCell>
        <mxCell id="ia7Ri7Av3f0508WHwBtR-66" style="edgeStyle=orthogonalEdgeStyle;rounded=0;orthogonalLoop=1;jettySize=auto;html=1;exitX=0.5;exitY=0;exitDx=0;exitDy=0;entryX=0.5;entryY=0;entryDx=0;entryDy=0;dashed=1;startSize=29;endArrow=open;endFill=0;endSize=12;strokeColor=#182E3E;fillColor=#dae8fc;fontFamily=Courier New;fontSize=14;jumpStyle=gap;" parent="1" source="vq10Wp0aYiQOO_JATJNM-233" target="ia7Ri7Av3f0508WHwBtR-22" edge="1">
          <mxGeometry relative="1" as="geometry" />
        </mxCell>
      </root>
    </mxGraphModel>
  </diagram>
</mxfile>
